<svg width="605" height="153" xmlns="http://www.w3.org/2000/svg" xmlns:xlink="http://www.w3.org/1999/xlink" xml:space="preserve" overflow="hidden"><g><path d="M91.7323 44.2169 68.3164 67.6329 91.7323 91.0415C97.3709 84.868 100.81 76.6516 100.81 67.6255 100.81 58.6068 97.3709 50.3904 91.7323 44.2169Z" fill="#BA0B21" transform="matrix(1.00317 0 0 1 0 0.0749571)"/><path d="M64.0819 72.328 40.6659 95.744C46.8394 101.383 55.0557 104.822 64.0819 104.822 73.1006 104.822 81.317 101.383 87.4978 95.744L64.0819 72.328Z" fill="#BA0B21" transform="matrix(1.00317 0 0 1 0 0.0749571)"/><path d="M59.9068 68.1604 36.4909 44.7444C30.8523 50.9178 27.4127 59.1342 27.4127 68.1604 27.4127 77.1791 30.8523 85.3955 36.4909 91.5763L59.9068 68.1604Z" fill="#BA0B21" transform="matrix(1.00317 0 0 1 0 0.0749571)"/><path d="M69.3787 55.8952C69.401 55.8581 69.4159 55.8135 69.4307 55.7764 69.8764 54.8997 70.2925 54.0008 70.6639 53.0871 70.7159 52.9534 70.7605 52.8122 70.8125 52.6785 71.1394 51.8465 71.4439 51.007 71.7114 50.1452 71.7931 49.8629 71.8525 49.5732 71.9343 49.2909 72.1348 48.5554 72.3428 47.8274 72.4989 47.0771 72.6029 46.5793 72.6623 46.0593 72.744 45.5467 72.8332 44.997 72.9446 44.4472 73.004 43.8901 73.1229 42.8055 73.1972 41.706 73.212 40.5916 73.2269 39.6482 73.1823 38.7195 73.1229 37.7909 73.0932 37.3898 73.0635 36.9812 73.0189 36.58 72.9743 36.164 72.9149 35.7628 72.8629 35.3542 72.6994 34.2028 72.4989 33.0661 72.2314 31.9518L72.2314 31.9518C70.8868 26.3355 68.2124 21.2319 64.5053 17.0345L41.0002 39.8116 41.0002 39.8116C41.0002 39.8116 40.7476 40.0568 40.7476 40.0568L40.7476 40.0568 40.7254 40.0716 64.1265 63.4356C64.2528 63.3018 64.0002 63.5693 64.1265 63.4356 66.1917 61.1697 67.9672 58.6365 69.3787 55.8878Z" fill="#BA0B21" transform="matrix(1.00317 0 0 1 0 0.0749571)"/><path d="M147.932 71.6742C150.347 77.6397 156.914 81.2576 163.496 81.3021 172.774 81.369 180.337 78.4791 180.382 71.8154 180.411 67.7666 173.517 66.058 170.033 65.3151 160.13 63.183 141.892 62.1058 141.996 46.6388 142.086 33.8685 156.386 30.5552 165.992 30.6146 178.131 30.6963 187.944 34.3365 191.057 43.0878L181.177 48.808C179.394 43.2438 173.146 39.8636 166.638 39.819 161.401 39.7819 153.066 40.7551 153.021 46.9434 152.991 50.8287 159.648 52.7008 163.927 53.6814 175.33 56.2964 191.436 57.121 191.332 72.276 191.235 85.9972 175.731 90.8929 164.863 90.8186 148.994 90.7071 140.555 83.984 138.059 77.1494L147.932 71.6668Z" fill="#2E2E2C" transform="matrix(1.00317 0 0 1 0 0.0749571)"/><path d="M198.07 32.353 246.462 32.6873 245.288 42.434 227.674 42.3151 227.34 90.4694 216.709 90.3951 217.043 42.2409 198.003 42.1071 198.07 32.3455Z" fill="#2E2E2C" transform="matrix(1.00317 0 0 1 0 0.0749571)"/><path d="M284.03 77.3722 258.326 77.1939 254.27 90.6551 243.401 90.5809 261.409 32.7838 281.244 32.9176 298.62 90.9523 287.908 90.878 284.037 77.3648ZM260.926 68.569 281.556 68.7101 273.726 41.602 269.202 41.5723 260.926 68.569Z" fill="#2E2E2C" transform="matrix(1.00317 0 0 1 0 0.0749571)"/><path d="M297.038 33.029 345.43 33.3633 344.256 43.11 326.642 42.9912 326.308 91.1455 315.677 91.0712 316.012 42.9169 296.971 42.7832 297.038 33.0216Z" fill="#2E2E2C" transform="matrix(1.00317 0 0 1 0 0.0749571)"/><path d="M382.998 78.0557 357.294 77.8774 353.238 91.3386 342.369 91.2643 360.377 33.4673 380.212 33.601 397.589 91.6358 386.876 91.5615 383.006 78.0483ZM359.887 69.245 380.517 69.3861 372.687 42.278 368.163 42.2483 359.887 69.245Z" fill="#2E2E2C" transform="matrix(1.00317 0 0 1 0 0.0749571)"/><path d="M438.514 63.3613 459.821 34.1508 470.37 34.225 469.969 92.1409 460.051 92.0741 460.341 49.6326 440.156 77.662 435.951 77.6322 416.072 49.172 415.782 91.7769 405.946 91.71 406.347 33.7942 417.847 33.8759 438.514 63.3761Z" fill="#2E2E2C" transform="matrix(1.00317 0 0 1 0 0.0749571)"/><path d="M519.029 78.9843 493.325 78.806 489.269 92.2672 478.4 92.1929 496.408 34.3959 516.243 34.5296 533.62 92.5644 522.907 92.4901 519.036 78.9769ZM495.925 70.181 516.555 70.3222 508.725 43.214 504.201 43.1843 495.925 70.181Z" fill="#2E2E2C" transform="matrix(1.00317 0 0 1 0 0.0749571)"/><path d="M532.037 34.6485 580.429 34.9828 579.255 44.737 561.641 44.6181 561.307 92.7724 550.676 92.6981 551.011 44.5438 531.97 44.4101 532.037 34.6485Z" fill="#2E2E2C" transform="matrix(1.00317 0 0 1 0 0.0749571)"/><path d="M412.023 142.591 412.023 122.287 421.19 122.287C426.301 122.287 428.909 124.122 428.909 127.785 428.909 129.367 428.218 131.091 426.606 131.7 428.3 132.086 430.135 134.085 430.135 136.254 430.135 139.894 427.884 142.583 423.278 142.583L412.03 142.583ZM416.324 126.069 416.324 130.43 421.547 130.43C423.657 130.43 424.741 130.155 424.741 128.179 424.741 126.567 423.716 126.069 421.547 126.069L416.324 126.069ZM422.713 138.809C424.548 138.809 425.937 138.223 425.937 136.447 425.937 134.501 424.548 134.114 422.713 134.114L416.324 134.114 416.324 138.809 422.713 138.809Z" fill="#979BA0" transform="matrix(1.00317 0 0 1 0 0.0749571)"/><path d="M441.382 130.927 446.523 122.287 451.106 122.287 443.522 134.783 443.522 142.583 439.22 142.583 439.22 134.783 431.635 122.287 436.189 122.287 441.382 130.927Z" fill="#979BA0" transform="matrix(1.00317 0 0 1 0 0.0749571)"/><path d="M479.596 138.007 471.484 138.007 470.154 142.591 465.682 142.591 471.878 122.287 479.128 122.287 485.346 142.591 480.956 142.591 479.596 138.007ZM472.539 134.367 478.564 134.367 476.038 125.95 475.094 125.95 472.539 134.367Z" fill="#979BA0" transform="matrix(1.00317 0 0 1 0 0.0749571)"/><path d="M504.446 126.314 493.756 126.314 493.756 130.615 502.255 130.615 501.809 134.449 493.756 134.449 493.756 142.583 489.477 142.583 489.477 122.28 504.862 122.28 504.446 126.307Z" fill="#979BA0" transform="matrix(1.00317 0 0 1 0 0.0749571)"/><path d="M513.212 122.287 513.212 142.591 508.852 142.591 508.852 122.287 513.212 122.287Z" fill="#979BA0" transform="matrix(1.00317 0 0 1 0 0.0749571)"/><path d="M517.209 122.287 534.348 122.287 533.932 126.314 527.988 126.314 527.988 142.591 523.657 142.591 523.657 126.314 517.216 126.314 517.216 122.287Z" fill="#979BA0" transform="matrix(1.00317 0 0 1 0 0.0749571)"/><path d="M553.477 142.591 538.315 142.591 538.315 122.287 553.7 122.287 553.284 126.314 542.616 126.314 542.616 129.286 551.085 129.286 550.639 133.149 542.616 133.149 542.616 138.624 553.893 138.624 553.477 142.598Z" fill="#979BA0" transform="matrix(1.00317 0 0 1 0 0.0749571)"/><path d="M577.056 129.204 572.473 130.623C571.916 127.733 570.14 125.846 567.109 125.846 563.64 125.846 561.775 128.847 561.775 131.953 561.775 135.927 563.996 138.757 567.443 138.757 570.252 138.757 572.027 136.648 572.666 134.367L576.967 135.199C575.994 139.701 572.941 142.836 567.495 142.836 561.3 142.836 557.333 138.364 557.333 132.45 557.333 125.816 561.196 121.76 567.637 121.76 571.916 121.76 576.165 123.758 577.049 129.204Z" fill="#979BA0" transform="matrix(1.00317 0 0 1 0 0.0749571)"/><path d="M93.0027 132.421C93.0027 135.97 80.2706 138.847 64.5648 138.847 48.8589 138.847 36.1269 135.97 36.1269 132.421 36.1269 128.872 48.8589 125.995 64.5648 125.995 80.2706 125.995 93.0027 128.872 93.0027 132.421Z" fill="#D7D7D7" transform="matrix(1.00317 0 0 1 0 0.0749571)"/></g></svg>