<svg width="374" height="148" xmlns="http://www.w3.org/2000/svg" xmlns:xlink="http://www.w3.org/1999/xlink" xml:space="preserve" overflow="hidden"><g><path d="M358.688 10.5885 341.668 67.1142 364.766 55.5668 339.845 119.386" stroke="#000000" stroke-width="1.72297" stroke-linecap="round" fill="none" transform="matrix(1.00844 0 0 1 0.437651 0)"/><path d="M328.244 119.244 350.705 119.244 333.542 141.703Z" stroke="#000000" stroke-width="1.72297" fill="none" transform="matrix(1.00844 0 0 1 0.437651 0)"/><path d="M300.866 83.8253 11.3769 83.8253 11.3769 6.33498C11.3769 4.58226 9.95599 3.1614 8.20327 3.1614 6.45055 3.1614 5.02969 4.58226 5.02969 6.33498L5.02969 140.332C5.02969 142.084 6.45015 143.505 8.2024 143.505 9.95465 143.505 11.3751 142.084 11.3751 140.332L11.3751 90.7868 297.384 90.7868 297.384 140.066C297.384 141.988 298.941 143.546 300.864 143.546 302.787 143.546 304.345 141.988 304.345 140.066L304.345 87.3061C304.347 85.3847 302.789 83.8253 300.866 83.8253Z" fill="#FFD219" transform="matrix(1.00844 0 0 1 0.437651 0)"/><path d="M18.173 74.5352 20.9263 69.7613 38.0725 37.4756 39.8964 33.8625C40.4272 32.8026 41.1669 31.2763 42.1171 29.2888 46.0051 29.3323 48.8454 29.355 50.6363 29.355 53.7516 29.355 56.6354 29.3323 59.286 29.2888L64.1225 43.1109 73.9608 69.6952 75.8822 74.5352C73.5595 74.5047 71.2366 74.4828 68.9137 74.469 67.055 74.469 64.3226 74.4917 60.7183 74.5352 59.7472 70.8891 58.3462 66.6025 56.5153 61.6738L39.8303 61.6738C37.7455 65.9149 35.758 70.203 33.8695 74.5352 31.3477 74.5044 28.8259 74.4824 26.3041 74.469 24.6211 74.469 21.9114 74.4899 18.173 74.5352ZM43.8366 52.0286 54.1327 52.0286C51.5726 44.2421 50.1734 39.9521 49.9297 39.1568 48.7358 41.8345 47.4994 44.4929 46.221 47.1312L43.8366 52.0286ZM79.396 74.5352 80.0591 67.5737 81.3522 43.9724 81.716 34.4595 81.716 29.2888C85.1462 29.3323 88.178 29.355 90.8129 29.355 92.6943 29.355 95.3379 29.3323 98.7473 29.2888L112.897 55.0203 114.848 58.8004C115.096 55.0864 115.352 49.881 115.612 43.1823 115.871 36.4835 116.003 31.8524 116.003 29.2888 118.718 29.3323 120.894 29.355 122.526 29.355 123.276 29.355 125.439 29.3323 129.016 29.2888L128.221 39.1672 126.729 66.613 126.531 74.5352C123.844 74.4929 121.158 74.4708 118.471 74.469 116.391 74.469 113.518 74.4917 109.847 74.5352 109.017 72.9549 108.167 71.3849 107.298 69.8257L101.736 60.3755C99.9965 57.4426 98.3082 54.4799 96.671 51.4891 95.5749 49.5472 94.5264 47.5788 93.5262 45.5857L92.8126 61.3048 92.4732 74.5352C90.3872 74.4979 88.301 74.4758 86.2148 74.469 85.0018 74.469 82.7289 74.4899 79.396 74.5352ZM135.05 74.5352C135.603 68.8337 136.007 64.0598 136.263 60.2153 136.517 56.3708 136.773 51.2611 137.027 44.8843 137.281 38.5093 137.408 34.2837 137.408 32.2057L137.375 29.2888C142.589 29.3323 148.898 29.355 156.3 29.355 163.127 29.355 169.147 29.3323 174.361 29.2888L174.295 30.3783C174.231 31.3355 174.177 32.2934 174.13 33.2517L173.932 36.8525C173.886 37.6235 173.865 38.4067 173.865 39.1985 170.288 39.0379 166.707 38.9497 163.126 38.934 159.942 38.934 157.795 38.9392 156.678 38.9497 155.562 38.9618 153.822 39.0106 151.456 39.0993L151.054 46.7222C153.663 46.7883 156.702 46.8214 160.172 46.8214 161.41 46.8214 164.704 46.7448 170.052 46.5899 169.797 49.9569 169.587 53.3271 169.422 56.6998 166.485 56.6622 163.548 56.6403 160.611 56.6336 157.563 56.6336 154.15 56.7102 150.374 56.8651L149.979 64.9196 153.788 64.9196C154.915 64.9196 157.245 64.8865 160.778 64.8204L167.635 64.655C169.337 64.5997 171.038 64.5115 172.736 64.3905 172.464 67.7681 172.243 71.1493 172.073 74.5334 166.681 74.4899 160.769 74.4673 154.34 74.4673L139.756 74.5004 135.05 74.5352ZM179.501 74.5352C180.054 69.3193 180.455 65.0675 180.698 61.773 181.165 55.7617 181.514 49.7905 181.748 43.8575 181.981 37.9246 182.097 33.0689 182.097 29.2888 185.101 29.3323 187.761 29.355 190.079 29.355 191.645 29.355 193.899 29.3323 196.837 29.2888L196.038 41.2887 195.039 60.05 194.907 64.6568C198.709 64.7229 201.184 64.756 202.335 64.756 208.149 64.756 212.549 64.6794 215.534 64.5245L214.803 74.5352C208.99 74.4917 203.455 74.469 198.198 74.469 191.078 74.469 184.847 74.4899 179.501 74.5352ZM219.575 74.5352C220.048 69.7681 220.452 64.9942 220.786 60.2153 221.04 56.3708 221.296 51.2611 221.55 44.8843 221.804 38.5093 221.933 34.2837 221.933 32.2057L221.9 29.2888C227.114 29.3323 233.421 29.355 240.823 29.355 247.651 29.355 253.671 29.3323 258.886 29.2888L258.819 30.3783C258.754 31.3355 258.7 32.2934 258.653 33.2517L258.455 36.8525C258.411 37.6235 258.389 38.4067 258.389 39.1985 254.81 39.0379 251.231 38.9497 247.649 38.934 244.467 38.934 242.318 38.9392 241.201 38.9497 240.085 38.9618 238.345 39.0106 235.981 39.0993L235.579 46.7222C238.186 46.7883 241.227 46.8214 244.695 46.8214 245.935 46.8214 249.227 46.7448 254.577 46.5899 254.321 49.9569 254.113 53.3271 253.949 56.6998 251.011 56.6622 248.075 56.6403 245.137 56.6336 242.09 56.6336 238.677 56.7102 234.901 56.8651L234.505 64.9196 238.315 64.9196C239.439 64.9196 241.77 64.8865 245.305 64.8204L252.16 64.655C253.862 64.5997 255.564 64.5115 257.263 64.3905 256.991 67.7681 256.77 71.1493 256.6 74.5334 251.206 74.4899 245.296 74.4673 238.867 74.4673L224.281 74.5004 219.575 74.5352ZM303.536 63.4959C303.271 64.796 302.949 66.6077 302.573 68.9329 302.197 71.258 301.945 73.0576 301.811 74.335 297.081 75.0416 292.86 75.3949 289.15 75.3949 285.568 75.3949 282.237 74.9476 279.155 74.0531 276.064 73.1547 273.182 71.6568 270.671 69.6447 268.096 67.6015 266.257 65.198 265.152 62.4343 264.045 59.6723 263.493 56.5779 263.493 53.1529 263.493 49.1535 264.24 45.5579 265.73 42.3643 267.186 39.2147 269.395 36.4714 272.16 34.3759 274.901 32.2708 278.025 30.7175 281.358 29.8022 284.728 28.8817 288.207 28.4193 291.7 28.4273 294.97 28.4273 299.014 28.8468 303.832 29.6874L303.898 32.472C303.941 33.6885 304.007 35.0251 304.096 36.4835L304.329 40.2619C301.745 39.6441 299.651 39.2229 298.048 39.0019 296.446 38.7808 294.961 38.6712 293.59 38.6712 290.607 38.6712 287.921 39.2681 285.535 40.4603 283.147 41.6542 281.269 43.3894 279.9 45.664 278.53 47.9387 277.844 50.4588 277.844 53.2208 277.844 55.7408 278.419 57.9006 279.567 59.7019 280.707 61.4949 282.319 62.9397 284.225 63.8788 286.181 64.8621 288.595 65.3529 291.468 65.3529 293.036 65.3529 294.743 65.2259 296.588 64.9718 298.437 64.7177 300.753 64.2252 303.536 63.4959Z" fill="#EA6A15" transform="matrix(1.00844 0 0 1 0.437651 0)"/><path d="M50.2743 130.539 52.1435 132.422C51.0696 133.649 49.9767 134.536 48.8646 135.086 47.7433 135.639 46.5085 135.922 45.2585 135.913 43.1857 135.913 41.4401 135.21 40.0217 133.805 38.6051 132.401 37.895 130.704 37.895 128.713 37.895 127.404 38.2135 126.207 38.8487 125.121 39.477 124.042 40.393 123.159 41.4941 122.571 42.6219 121.955 43.8993 121.651 45.3264 121.651 46.2349 121.651 47.0633 121.783 47.8082 122.046 48.5531 122.31 49.2057 122.688 49.7661 123.177 50.3248 123.668 50.7755 124.261 51.1149 124.957 51.456 125.65 51.691 126.371 51.818 127.117 51.872 127.49 51.8998 128.081 51.8998 128.891L42.7228 128.891C42.7419 130.045 43.0796 130.977 43.7392 131.691 44.397 132.404 45.2046 132.761 46.16 132.761 46.7692 132.761 47.4323 132.579 48.151 132.211 48.8663 131.842 49.5747 131.285 50.2743 130.539ZM47.5471 126.599C47.4827 126.054 47.3539 125.622 47.1573 125.311 46.7598 124.676 46.0664 124.288 45.3177 124.28 44.9348 124.28 44.5659 124.376 44.2108 124.566 43.854 124.757 43.5704 125.018 43.3563 125.344 43.1405 125.671 43.003 126.089 42.9386 126.599L47.5471 126.599ZM60.2432 115.568 60.2432 131.52C60.2432 132.058 60.2658 132.375 60.3111 132.476 60.3755 132.657 60.5164 132.789 60.734 132.871 60.8715 132.925 61.2387 132.953 61.8391 132.953L62.316 132.953 62.316 135.586 53.8751 135.586 53.8751 132.953 54.392 132.953C54.9368 132.953 55.2883 132.918 55.4432 132.85 55.5981 132.782 55.7112 132.672 55.7843 132.523 55.8574 132.373 55.8922 132.039 55.8922 131.52L55.8922 119.359 53.8751 119.359 53.8751 116.727C55.5024 116.616 57.1836 116.231 58.9188 115.568L60.2432 115.568ZM75.964 130.539 77.8332 132.422C76.7594 133.649 75.6664 134.536 74.5543 135.086 73.433 135.639 72.1982 135.922 70.9482 135.913 68.8755 135.913 67.1299 135.21 65.7114 133.805 64.2948 132.401 63.5847 130.704 63.5847 128.713 63.5847 127.404 63.9032 126.207 64.5384 125.121 65.1667 124.042 66.0827 123.159 67.1838 122.571 68.3116 121.955 69.589 121.651 71.0161 121.651 71.9246 121.651 72.753 121.783 73.4979 122.046 74.2428 122.31 74.8954 122.688 75.4558 123.177 76.0145 123.668 76.4652 124.261 76.8046 124.957 77.1457 125.65 77.3807 126.371 77.5077 127.117 77.5617 127.49 77.5895 128.081 77.5895 128.891L68.4125 128.891C68.4317 130.045 68.7693 130.977 69.4289 131.691 70.0868 132.404 70.8943 132.761 71.8498 132.761 72.4589 132.761 73.122 132.579 73.8408 132.211 74.5543 131.842 75.2644 131.285 75.964 130.539ZM73.2368 126.599C73.1724 126.054 73.0437 125.622 72.847 125.311 72.4495 124.676 71.7561 124.288 71.0074 124.28 70.6245 124.28 70.2556 124.376 69.9005 124.566 69.5438 124.757 69.2601 125.018 69.046 125.344 68.8302 125.671 68.6927 126.089 68.6283 126.599L73.2368 126.599ZM86.328 115.568 86.328 127.848 88.9455 125.631C89.2274 125.396 89.3928 125.243 89.4432 125.175 89.4937 125.107 89.5181 125.041 89.5181 124.978 89.5181 124.869 89.4554 124.78 89.3336 124.712 89.2118 124.644 88.949 124.609 88.5487 124.609L88.0318 124.609 88.0318 121.976 96.363 121.976 96.363 124.609C95.7626 124.609 95.3536 124.649 95.136 124.731 94.8454 124.848 94.3685 125.149 93.7054 125.631L91.0583 127.564 94.8245 131.945C95.2074 132.399 95.5172 132.679 95.7591 132.782 96.001 132.888 96.4761 132.946 97.1844 132.953L97.1844 135.586 88.7314 135.586 88.7314 132.953 89.2031 132.953C89.5442 132.953 89.7687 132.921 89.8783 132.857 89.9862 132.794 90.0419 132.713 90.0419 132.612 90.0419 132.485 89.8975 132.23 89.6068 131.849L88.0422 129.843 86.3349 131.113 86.3349 131.849C86.3349 132.194 86.3628 132.429 86.4167 132.551 86.4724 132.672 86.5647 132.772 86.6969 132.843 86.8292 132.918 87.0363 132.951 87.3165 132.951L87.7934 132.951 87.7934 135.584 79.9669 135.584 79.9669 132.951C80.2401 132.944 80.449 132.937 80.5934 132.937 81.1016 132.937 81.4288 132.902 81.575 132.834 81.7212 132.766 81.8256 132.652 81.8883 132.488 81.9335 132.37 81.9579 131.975 81.9579 131.301L81.9579 119.357 79.9669 119.357 79.9669 116.699C81.5123 116.626 83.1935 116.249 85.0122 115.568L86.328 115.568ZM104.393 117.298 104.393 121.976 108.782 121.976 108.782 124.881 104.393 124.881 104.393 129.627C104.393 130.699 104.451 131.39 104.564 131.693 104.682 132.004 104.907 132.263 105.199 132.424 105.608 132.669 106.076 132.791 106.603 132.791 107.54 132.791 108.471 132.486 109.398 131.879L109.398 134.798C108.711 135.132 107.992 135.394 107.251 135.581 106.61 135.73 105.916 135.807 105.171 135.807 104.327 135.807 103.579 135.699 102.928 135.485 102.319 135.293 101.753 134.983 101.264 134.573 100.804 134.174 100.488 133.757 100.31 133.309 100.133 132.864 100.044 132.22 100.044 131.374L100.044 124.884 97.9989 124.884 97.9989 122.267C98.7247 122.03 99.3477 121.691 99.8664 121.25 100.385 120.81 100.801 120.279 101.114 119.661 101.427 119.045 101.643 118.257 101.762 117.303L104.393 117.303ZM117.143 121.649 117.143 123.626C117.871 122.864 118.502 122.343 119.035 122.065 119.567 121.79 120.081 121.651 120.572 121.651 121.019 121.651 121.417 121.753 121.769 121.957 122.119 122.161 122.397 122.455 122.603 122.838 122.808 123.219 122.911 123.628 122.911 124.065 122.911 124.637 122.721 125.156 122.343 125.619 121.966 126.083 121.435 126.315 120.751 126.315 120.568 126.315 120.406 126.301 120.265 126.275 120.124 126.249 119.825 126.157 119.369 126.002 119.179 125.937 118.981 125.901 118.781 125.894 118.544 125.894 118.153 126.043 117.606 126.344L117.606 131.674C117.606 132.129 117.641 132.425 117.709 132.561 117.778 132.697 117.888 132.798 118.043 132.86 118.196 132.925 118.534 132.956 119.052 132.956L119.653 132.956 119.653 135.589 111.24 135.589 111.24 132.956 111.939 132.956C112.442 132.956 112.756 132.928 112.879 132.874 113.005 132.818 113.106 132.716 113.161 132.589 113.226 132.453 113.257 132.147 113.257 131.675L113.257 125.417 111.238 125.417 111.238 122.799C112.719 122.707 114.259 122.328 115.86 121.654L117.143 121.654ZM131.529 121.649C133.083 121.649 134.437 121.953 135.591 122.563 136.745 123.172 137.634 124 138.257 125.051 138.88 126.101 139.192 127.33 139.192 128.739 139.192 130.866 138.501 132.594 137.119 133.92 135.737 135.248 133.892 135.913 131.583 135.913 129.228 135.913 127.356 135.243 125.965 133.908 124.62 132.638 123.946 130.913 123.946 128.741 123.946 127.314 124.253 126.087 124.867 125.06 125.481 124.032 126.369 123.208 127.531 122.585 128.696 121.96 130.029 121.649 131.529 121.649ZM131.583 124.635C131.064 124.635 130.579 124.79 130.125 125.1 129.67 125.41 129.319 125.862 129.068 126.463 128.818 127.063 128.694 127.826 128.694 128.753 128.694 129.707 128.818 130.497 129.061 131.125 129.307 131.75 129.646 132.217 130.078 132.516 130.509 132.815 130.984 132.965 131.503 132.965 132.302 132.965 132.989 132.629 133.562 131.95 134.134 131.271 134.422 130.222 134.422 128.795 134.422 127.413 134.155 126.374 133.624 125.678 133.09 124.984 132.41 124.635 131.583 124.635ZM147.4 117.298 147.4 121.976 151.789 121.976 151.789 124.881 147.4 124.881 147.4 129.627C147.4 130.699 147.457 131.39 147.57 131.693 147.688 132.004 147.914 132.263 148.205 132.424 148.614 132.669 149.083 132.791 149.61 132.791 150.546 132.791 151.477 132.486 152.405 131.879L152.405 134.798C151.718 135.132 150.998 135.394 150.257 135.581 149.617 135.73 148.922 135.807 148.178 135.807 147.333 135.807 146.585 135.699 145.934 135.485 145.325 135.293 144.76 134.983 144.27 134.573 143.811 134.174 143.494 133.757 143.317 133.309 143.139 132.864 143.05 132.22 143.05 131.374L143.05 124.884 141.005 124.884 141.005 122.267C141.731 122.03 142.354 121.691 142.873 121.25 143.391 120.81 143.807 120.279 144.121 119.661 144.434 119.045 144.65 118.257 144.768 117.303L147.4 117.303ZM166.448 130.539 168.317 132.422C167.243 133.649 166.15 134.536 165.038 135.086 163.917 135.639 162.682 135.922 161.432 135.913 159.359 135.913 157.614 135.21 156.195 133.805 154.779 132.401 154.069 130.704 154.069 128.713 154.069 127.404 154.387 126.207 155.022 125.121 155.651 124.042 156.567 123.159 157.668 122.571 158.796 121.955 160.073 121.651 161.5 121.651 162.409 121.651 163.237 121.783 163.982 122.046 164.727 122.31 165.379 122.688 165.94 123.177 166.498 123.668 166.949 124.261 167.289 124.957 167.63 125.65 167.865 126.371 167.992 127.117 168.046 127.49 168.074 128.081 168.074 128.891L158.897 128.891C158.916 130.045 159.253 130.977 159.913 131.691 160.571 132.404 161.378 132.761 162.334 132.761 162.943 132.761 163.606 132.579 164.325 132.211 165.04 131.842 165.748 131.285 166.448 130.539ZM163.721 126.599C163.656 126.054 163.528 125.622 163.331 125.311 162.933 124.676 162.24 124.288 161.491 124.28 161.109 124.28 160.74 124.376 160.385 124.566 160.028 124.757 159.744 125.018 159.53 125.344 159.314 125.671 159.177 126.089 159.112 126.599L163.721 126.599ZM182.757 130.429 184.76 132.19C183.688 133.489 182.574 134.434 181.42 135.025 180.267 135.617 179.029 135.913 177.712 135.913 175.602 135.913 173.841 135.226 172.428 133.852 171.015 132.479 170.308 130.807 170.308 128.835 170.308 127.498 170.637 126.275 171.297 125.168 171.943 124.069 172.882 123.172 174.01 122.578 175.16 121.96 176.516 121.651 178.079 121.651 179.952 121.651 181.481 122.086 182.668 122.952 183.854 123.821 184.447 124.736 184.447 125.699 184.447 126.11 184.355 126.473 184.169 126.797 183.965 127.135 183.669 127.408 183.316 127.582 182.933 127.782 182.529 127.881 182.103 127.881 181.782 127.887 181.464 127.817 181.175 127.678 180.916 127.552 180.684 127.375 180.493 127.159 180.411 127.068 180.253 126.787 180.016 126.315 179.717 125.723 179.483 125.333 179.32 125.142 178.982 124.743 178.479 124.521 177.957 124.54 177.468 124.545 176.993 124.706 176.6 124.999 176.168 125.302 175.813 125.763 175.536 126.383 175.258 127.001 175.12 127.692 175.12 128.454 175.12 129.291 175.284 130.043 175.611 130.711 175.938 131.379 176.377 131.886 176.927 132.232 177.477 132.577 178.084 132.749 178.747 132.749 179.421 132.739 180.082 132.562 180.67 132.232 181.316 131.884 182.012 131.285 182.757 130.429ZM192.984 115.568 192.984 123.135C193.883 122.592 194.679 122.208 195.37 121.983 196.061 121.762 196.727 121.651 197.373 121.651 198.236 121.651 199.007 121.833 199.684 122.202 200.361 122.571 200.861 123.033 201.176 123.586 201.496 124.141 201.654 124.881 201.654 125.808L201.654 131.494C201.654 132.048 201.675 132.385 201.722 132.504 201.799 132.682 201.947 132.82 202.129 132.885 202.248 132.932 202.571 132.953 203.099 132.953L203.739 132.953 203.739 135.586 195.709 135.586 195.709 132.953 196.116 132.953C196.508 132.953 196.776 132.918 196.922 132.845 197.066 132.773 197.167 132.671 197.221 132.538 197.275 132.406 197.303 132.086 197.303 131.576L197.303 126.872C197.303 126.256 197.267 125.843 197.188 125.638 197.108 125.43 196.962 125.254 196.774 125.135 196.55 124.996 196.289 124.928 196.026 124.938 195.568 124.944 195.114 125.032 194.686 125.196 194.219 125.37 193.652 125.685 192.982 126.151L192.982 131.576C192.982 132.095 193.01 132.417 193.062 132.545 193.125 132.681 193.236 132.788 193.375 132.845 193.528 132.92 193.817 132.953 194.238 132.953L194.538 132.953 194.538 135.586 186.614 135.586 186.614 132.953 187.378 132.953C187.823 132.953 188.107 132.925 188.229 132.864 188.356 132.801 188.455 132.695 188.509 132.565 188.572 132.422 188.605 132.143 188.605 131.726L188.605 119.36 186.612 119.36 186.612 116.727C187.468 116.666 188.319 116.536 189.155 116.337 190.021 116.146 190.872 115.889 191.699 115.568L192.984 115.568ZM211.555 121.649 211.555 123.462C212.582 122.763 213.463 122.284 214.194 122.03 214.914 121.778 215.673 121.649 216.437 121.649 217.318 121.649 218.099 121.835 218.776 122.208 219.453 122.58 219.945 123.045 220.255 123.605 220.565 124.166 220.72 124.956 220.72 125.984L220.72 131.656C220.72 132.138 220.755 132.448 220.823 132.584 220.892 132.719 220.998 132.82 221.145 132.883 221.253 132.93 221.58 132.951 222.126 132.951L222.793 132.951 222.793 135.584 214.789 135.584 214.789 132.951C215.4 132.944 215.739 132.93 215.812 132.911 216.038 132.848 216.188 132.744 216.263 132.598 216.334 132.453 216.371 132.14 216.371 131.66L216.371 126.663C216.371 126.021 216.303 125.603 216.167 125.412 215.948 125.093 215.603 124.937 215.13 124.937 214.738 124.937 214.321 125.022 213.875 125.194 213.43 125.366 212.827 125.72 212.074 126.254L212.074 131.658C212.074 132.248 212.138 132.61 212.267 132.746 212.396 132.881 212.702 132.949 213.188 132.949L213.628 132.949 213.628 135.582 205.706 135.582 205.706 132.949 206.101 132.949C206.729 132.949 207.117 132.921 207.267 132.867 207.418 132.813 207.531 132.718 207.608 132.582 207.685 132.446 207.725 132.18 207.725 131.78L207.725 125.436 205.706 125.436 205.706 122.805C207.277 122.617 208.819 122.227 210.292 121.645L211.555 121.645ZM230.903 121.649 230.903 131.724C230.903 132.206 230.931 132.502 230.985 132.612 231.039 132.721 231.138 132.805 231.277 132.864 231.42 132.925 231.737 132.953 232.226 132.953L232.964 132.953 232.964 135.586 224.537 135.586 224.537 132.953 225.257 132.953C225.729 132.953 226.032 132.928 226.164 132.878 226.291 132.835 226.395 132.744 226.456 132.626 226.521 132.507 226.552 132.272 226.552 131.917L226.552 125.413 224.537 125.413 224.537 122.85C225.229 122.816 225.918 122.739 226.601 122.618 227.198 122.515 227.789 122.374 228.369 122.195 228.797 122.047 229.211 121.864 229.61 121.651L230.903 121.651ZM228.693 115.568C229.382 115.568 229.972 115.812 230.459 116.297 230.946 116.783 231.188 117.373 231.188 118.064 231.188 118.763 230.945 119.357 230.459 119.842 229.974 120.328 229.384 120.572 228.693 120.572 228.002 120.572 227.415 120.328 226.928 119.842 226.451 119.38 226.186 118.741 226.197 118.076 226.197 117.394 226.448 116.805 226.949 116.309 227.405 115.835 228.035 115.567 228.693 115.568ZM246.881 130.539 248.75 132.422C247.677 133.649 246.584 134.536 245.47 135.086 244.349 135.639 243.113 135.922 241.864 135.913 239.791 135.913 238.047 135.21 236.627 133.805 235.21 132.401 234.5 130.704 234.5 128.713 234.5 127.404 234.819 126.207 235.454 125.121 236.082 124.041 236.999 123.158 238.101 122.571 239.227 121.955 240.505 121.651 241.932 121.651 242.84 121.651 243.669 121.783 244.413 122.046 245.158 122.31 245.811 122.688 246.371 123.177 246.928 123.668 247.379 124.261 247.72 124.957 248.06 125.65 248.295 126.371 248.422 127.117 248.475 127.49 248.503 128.081 248.503 128.891L239.328 128.891C239.345 130.045 239.685 130.977 240.344 131.691 241.002 132.404 241.81 132.761 242.765 132.761 243.374 132.761 244.036 132.579 244.755 132.211 245.473 131.842 246.182 131.285 246.881 130.539ZM244.156 126.599C244.091 126.054 243.963 125.622 243.764 125.311 243.569 124.997 243.296 124.738 242.972 124.559 242.652 124.377 242.292 124.282 241.925 124.28 241.54 124.28 241.173 124.376 240.816 124.566 240.461 124.757 240.177 125.018 239.963 125.344 239.747 125.671 239.61 126.089 239.546 126.599L244.156 126.599ZM257.247 115.568 257.247 127.848 259.865 125.631C260.042 125.493 260.209 125.341 260.361 125.175 260.406 125.119 260.434 125.05 260.437 124.978 260.437 124.869 260.374 124.78 260.253 124.712 260.131 124.644 259.868 124.609 259.469 124.609L258.951 124.609 258.951 121.976 267.282 121.976 267.282 124.609C266.682 124.609 266.273 124.649 266.055 124.731 265.764 124.848 265.288 125.149 264.624 125.631L261.977 127.564 265.743 131.945C266.125 132.399 266.436 132.679 266.676 132.782 266.918 132.888 267.392 132.946 268.102 132.953L268.102 135.586 259.649 135.586 259.649 132.953 260.119 132.953C260.46 132.953 260.684 132.921 260.796 132.857 260.904 132.794 260.959 132.713 260.959 132.612 260.959 132.485 260.813 132.23 260.522 131.849L258.958 129.843 257.252 131.113 257.252 131.849C257.252 132.194 257.28 132.429 257.334 132.551 257.388 132.672 257.48 132.772 257.612 132.843 257.745 132.918 257.952 132.951 258.232 132.951L258.709 132.951 258.709 135.584 250.882 135.584 250.882 132.951C251.156 132.944 251.363 132.937 251.509 132.937 252.019 132.937 252.344 132.902 252.491 132.834 252.637 132.765 252.75 132.64 252.804 132.488 252.849 132.37 252.872 131.975 252.872 131.301L252.872 119.357 250.881 119.357 250.881 116.699C252.426 116.626 254.107 116.249 255.926 115.568L257.247 115.568Z" transform="matrix(1.00844 0 0 1 0.437651 0)"/><path d="M353.871 4.32658 336.852 60.8541 359.948 49.3049 335.03 113.125" stroke="#000000" stroke-width="3.44421" stroke-linecap="round" fill="none" transform="matrix(1.00844 0 0 1 0.437651 0)"/><path d="M323.428 112.98 345.886 112.98 328.726 135.44Z" stroke="#000000" stroke-width="3.44421" fill="#FFFFFF" transform="matrix(1.00844 0 0 1 0.437651 0)"/><path d="M15.9227 54.66 14.9951 54.1536 17.0731 50.3491C17.3899 49.7678 17.7066 49.3467 18.0251 49.0891 18.3436 48.8298 18.6777 48.6819 19.0293 48.6401 19.6248 48.5698 20.2119 48.8267 20.5643 49.3119 20.7105 49.5155 20.8132 49.747 20.8671 50.008 20.9211 50.2691 20.9193 50.5719 20.8584 50.9182 21.0527 50.7 21.2732 50.5066 21.5146 50.3422 22.065 50.0066 22.7539 49.9946 23.3158 50.3108 23.6709 50.504 23.9389 50.7894 24.1216 51.1671 24.3044 51.5448 24.3688 51.9712 24.3113 52.4498 24.2539 52.9266 24.019 53.5427 23.6082 54.298L21.6938 57.8084 20.7662 57.3019 20.9106 57.0391C21.0064 56.8616 21.0568 56.7346 21.0603 56.6563 21.0638 56.5779 21.0446 56.5101 21.0029 56.4526 20.8988 56.3524 20.7787 56.2701 20.6478 56.209L16.9113 54.171C16.7886 54.0929 16.654 54.0353 16.5127 54.0004 16.4408 53.998 16.3702 54.0201 16.3126 54.0631 16.2093 54.1557 16.1259 54.2681 16.0672 54.3938L15.9227 54.66ZM19.045 53.1859 19.4435 52.4515C19.6541 52.0669 19.7759 51.7658 19.8142 51.5465 19.8507 51.3272 19.8281 51.1358 19.7498 50.9722 19.6715 50.8086 19.5462 50.6815 19.3774 50.5876 19.219 50.4955 19.0357 50.456 18.8535 50.4744 18.673 50.4974 18.5054 50.5808 18.3784 50.7111 18.2357 50.8486 18.046 51.1306 17.8128 51.5604L17.4125 52.2949 19.045 53.1859ZM20.03 53.722 21.4797 54.5139C21.6868 54.6218 21.8104 54.6792 21.8522 54.6862 21.9061 54.6949 21.9531 54.6862 21.9897 54.6583 22.0262 54.6305 22.0906 54.5365 22.1794 54.3729L22.4457 53.8838C22.6005 53.5984 22.7015 53.3495 22.752 53.1337 22.8024 52.9179 22.7781 52.6986 22.6841 52.4794 22.5856 52.2524 22.4107 52.0671 22.1898 51.9555 22.0147 51.853 21.8127 51.8057 21.6103 51.8198 21.4087 51.8427 21.2197 51.9292 21.0708 52.0669 20.8967 52.2131 20.7088 52.4759 20.5017 52.857L20.03 53.722ZM18.6586 47.441 20.3955 44.2578 21.3214 44.7643 21.2674 44.8652C21.1578 45.0671 21.0934 45.2011 21.0812 45.2637 21.0673 45.3281 21.0742 45.3943 21.1056 45.4604 21.1369 45.5265 21.1769 45.5735 21.2309 45.6049 21.2987 45.6414 21.4571 45.6797 21.7043 45.7197L25.6862 46.3532 22.9556 43.224C22.8684 43.1165 22.7671 43.0211 22.6545 42.9403 22.564 42.8916 22.4805 42.8847 22.4074 42.9212 22.3343 42.9577 22.242 43.0744 22.1376 43.2693L22.0245 43.4764 21.0986 42.9699 22.5118 40.3768 23.4394 40.8832C23.3228 41.0973 23.2671 41.2557 23.2758 41.3549 23.288 41.5063 23.4046 41.7169 23.6291 41.9849L27.6964 46.8075 26.8732 48.3146 20.5643 47.521C20.3981 47.4939 20.2295 47.4852 20.0613 47.4949 19.9722 47.5114 19.8894 47.5518 19.8212 47.6115 19.7225 47.7072 19.6417 47.8198 19.5827 47.9439L18.6586 47.441ZM23.65 40.4951 22.7241 39.9904 24.7986 36.1842C25.1171 35.6029 25.4339 35.1817 25.7524 34.9242 26.0709 34.6648 26.405 34.5152 26.7566 34.4751 27.1081 34.4351 27.4371 34.4978 27.7399 34.6631 27.9581 34.7813 28.1468 34.9473 28.2916 35.1487 28.4378 35.3523 28.5405 35.5838 28.5944 35.8448 28.6484 36.1059 28.6449 36.4104 28.5857 36.7568 28.8381 36.487 29.0573 36.2938 29.2436 36.1807 29.5058 36.0147 29.8087 35.9238 30.119 35.9179 30.4375 35.9092 30.7455 35.9858 31.0431 36.1477 31.3982 36.3408 31.6662 36.6263 31.8489 37.0039 32.0317 37.3816 32.096 37.808 32.0369 38.2848 31.9777 38.7617 31.7462 39.3778 31.3355 40.1331L29.4193 43.6435 28.4935 43.1387 28.6379 42.8742C28.7124 42.7576 28.7632 42.6274 28.7876 42.4913 28.7935 42.4193 28.773 42.3476 28.7302 42.2894 28.6261 42.1892 28.506 42.1069 28.3751 42.0458L24.6385 40.0078C24.516 39.9298 24.3813 39.8728 24.24 39.839 24.1676 39.8353 24.0964 39.8569 24.0381 39.8999 23.9361 39.9932 23.8534 40.1056 23.7944 40.2306L23.65 40.4951ZM26.774 39.021 27.1743 38.2848C27.3831 37.9002 27.5049 37.5991 27.5415 37.3816 27.581 37.1882 27.5592 36.9874 27.4788 36.8073 27.3986 36.6428 27.2682 36.5081 27.1064 36.4226 26.9482 36.3302 26.7649 36.29 26.5825 36.3078 26.4017 36.3313 26.2343 36.4153 26.1074 36.5462 25.9647 36.6819 25.775 36.9656 25.54 37.3938L25.1398 38.1299 26.774 39.021ZM27.7555 39.557 29.207 40.3472C29.4141 40.4568 29.5377 40.5143 29.5795 40.5212 29.6275 40.5311 29.6773 40.5203 29.717 40.4916 29.7954 40.4076 29.8595 40.3112 29.9067 40.2062L30.1729 39.7172C30.3078 39.482 30.4101 39.2297 30.4775 38.9671 30.5276 38.7469 30.5038 38.5163 30.4096 38.3109 30.312 38.0835 30.1376 37.8976 29.9171 37.7853 29.742 37.6828 29.54 37.6355 29.3376 37.6496 29.136 37.674 28.9474 37.761 28.798 37.8985 28.624 38.0447 28.436 38.3075 28.2289 38.6869L27.7555 39.557ZM27.907 30.4879 28.7284 28.9825 34.9973 29.7918C35.3332 29.8336 35.5542 29.8283 35.6656 29.7796 35.7769 29.7309 35.8918 29.5899 36.0119 29.3619L36.9378 29.8684 35.2096 33.0376 34.2837 32.5329 34.3829 32.338C34.4804 32.1622 34.5239 32.0247 34.5152 31.9307 34.5082 31.8333 34.4717 31.7689 34.4038 31.7323 34.274 31.6811 34.1384 31.646 34 31.6279L33.2812 31.4974 32.1691 33.5336 32.7104 34.1532C32.78 34.2411 32.8615 34.319 32.9523 34.3846 33.0028 34.4125 33.0602 34.4195 33.1211 34.4055 33.182 34.3916 33.2464 34.3481 33.3108 34.275 33.3509 34.228 33.4414 34.0801 33.5754 33.8347L34.503 34.3411 33.0881 36.9343 32.1622 36.4296C32.2348 36.3088 32.2877 36.1772 32.3188 36.0397 32.3319 35.9524 32.3223 35.8631 32.291 35.7804 32.2306 35.6562 32.1528 35.5413 32.0595 35.4393L27.907 30.4879ZM31.4051 32.6547 32.1309 31.3251 29.9362 30.97 31.4051 32.6547Z" fill="#EA6A15" transform="matrix(1.00844 0 0 1 0.437651 0)"/></g></svg>